<svg xmlns="http://www.w3.org/2000/svg" width="64" height="64" viewBox="-102 0 958 958" fill="none"><g transform="translate(0 102)"><path d="M376.491 753.352C168.976 753.352 0 584.376 0 376.491C0 168.606 168.976 0 376.491 0C466.167 0 552.878 31.8683 620.691 90.0465L512.116 217.149C474.319 184.91 426.146 167.123 376.12 167.123C221.966 167.123 105.981 334.617 201.215 497.294C216.037 522.492 237.53 543.244 263.469 556.954C360.556 607.721 463.202 589.193 528.421 520.269L649.965 635.143C579.558 710.367 479.877 753.352 376.491 753.352Z" fill="#EFEDEA"/><ellipse cx="381.677" cy="377.973" rx="107.463" ry="107.463" fill="#00FC8F"/></g></svg>
